# xmcd
# 
# Track frame offsets:
#     150
#     26808
#     47717
#     72628
#     92416
#     113750
#     132726
#     157136
# 
# Disc length: 2436
# 
# Revision: 0
# Processed by: cddbd v1.5.2PL0 Copyright (c) Steve Scherf et al.
# Submitted via: fre:ac v1.0.17
# 
DISCID=73098208
DTITLE=Royal Philarmonic Orchestra - Playing Genesis, Queen, Pink Floyd, Elton John
DYEAR=0
DGENRE=Rock
TTITLE0=Nikita
TTITLE1=Follow You Follow Me
TTITLE2=Barcelona
TTITLE3=Wish You Where Here
TTITLE4=Rocket Man
TTITLE5=Alone Tonight
TTITLE6=Radio Ga-ga
TTITLE7=Time
EXTD=
EXTT0=
EXTT1=
EXTT2=
EXTT3=
EXTT4=
EXTT5=
EXTT6=
EXTT7=
PLAYORDER=
